<svg width="30" height="30" viewBox="0 0 30 30" fill="none" xmlns="http://www.w3.org/2000/svg">
<g clip-path="url(#clip0_20_8)">
<path d="M15 0C12.0333 0 9.13319 0.879735 6.66645 2.52796C4.19972 4.17618 2.27713 6.51886 1.14181 9.25975C0.00649929 12.0006 -0.290551 15.0166 0.288228 17.9264C0.867006 20.8361 2.29562 23.5088 4.3934 25.6066C6.49119 27.7044 9.16394 29.133 12.0737 29.7118C14.9834 30.2906 17.9994 29.9935 20.7403 28.8582C23.4812 27.7229 25.8238 25.8003 27.4721 23.3336C29.1203 20.8668 30 17.9667 30 15C29.9956 11.0231 28.4138 7.21037 25.6017 4.39829C22.7896 1.5862 18.9769 0.00442551 15 0V0ZM19.3956 15.8198L15.6922 18.4053L13.7492 19.7615C13.5993 19.8661 13.4236 19.9277 13.2411 19.9394C13.0587 19.9512 12.8765 19.9127 12.7144 19.8281C12.5523 19.7436 12.4165 19.6162 12.3217 19.4599C12.2269 19.3036 12.1768 19.1242 12.1768 18.9414V11.0586C12.1768 10.8758 12.2269 10.6964 12.3217 10.5401C12.4165 10.3838 12.5523 10.2564 12.7144 10.1719C12.8765 10.0873 13.0587 10.0488 13.2411 10.0606C13.4236 10.0723 13.5993 10.1339 13.7492 10.2385L15.6922 11.5947L19.3956 14.1799C19.5277 14.2721 19.6355 14.3947 19.7099 14.5375C19.7844 14.6802 19.8233 14.8389 19.8233 14.9999C19.8233 15.1609 19.7844 15.3195 19.7099 15.4623C19.6355 15.605 19.5277 15.7277 19.3956 15.8198V15.8198Z" fill="#8761A8"/>
</g>
<defs>
<clipPath id="clip0_20_8">
<rect width="30" height="30" fill="white"/>
</clipPath>
</defs>
</svg>
